#N canvas 122 90 1145 675 12;
#X obj 530 648 dac~;
#X obj 363 590 *~ 0.1;
#X floatatom 291 220 5 0 0 0 - - - 0;
#X obj 407 427 vsl 15 128 0 1 0 0 empty empty empty 0 -9 0 10 #fcfcfc
#000000 #000000 0 1;
#X msg 292 273 waveform \$1;
#N canvas 208 233 450 300 random-notes 1;
#X floatatom 162 209 5 0 0 0 - - - 0;
#X obj 133 64 random 8;
#X obj 130 99 sel 0 1 2 3 4 5 6 7;
#X obj 114 -9 inlet;
#X obj 160 259 outlet;
#X msg 80 137 48;
#X msg 126 138 44;
#X msg 172 138 56, f 4;
#X msg 220 136 52, f 4;
#X msg 264 135 53, f 4;
#X obj 127 34 metro 59;
#X connect 0 0 4 0;
#X connect 1 0 2 0;
#X connect 2 0 5 0;
#X connect 2 1 6 0;
#X connect 2 2 7 0;
#X connect 2 3 8 0;
#X connect 2 4 9 0;
#X connect 2 5 5 0;
#X connect 2 6 9 0;
#X connect 2 7 7 0;
#X connect 3 0 10 0;
#X connect 5 0 0 0;
#X connect 6 0 0 0;
#X connect 7 0 0 0;
#X connect 8 0 0 0;
#X connect 9 0 0 0;
#X connect 10 0 1 0;
#X restore 80 171 pd random-notes;
#X msg 109 274 notein \$1 \$2;
#X obj 338 350 septavox~, f 18;
#X obj 394 127 vsl 15 128 0 1 0 0 empty empty empty 0 -9 0 10 #fcfcfc
#000000 #000000 0 1;
#X msg 383 273 knob1 \$1;
#X obj 453 130 vsl 15 128 0 1 0 0 empty empty empty 0 -9 0 10 #fcfcfc
#000000 #000000 0 1;
#X obj 523 120 vsl 15 128 0 1 0 0 empty empty empty 0 -9 0 10 #fcfcfc
#000000 #000000 0 1;
#X msg 454 273 knob2 \$1;
#X msg 527 275 knob3 \$1;
#X obj 79 147 tgl 15 0 empty empty empty 17 7 0 10 #fcfcfc #000000
#000000 0 1;
#X obj 108 251 pack;
#X obj 831 401 vsl 15 128 0 1 0 0 empty empty empty 0 -9 0 10 #fcfcfc
#000000 #000000 0 1;
#X obj 98 223 makenote 100 800;
#X obj 290 247 % 7;
#X floatatom 225 219 5 0 0 0 - - - 0;
#X msg 230 274 mode \$1;
#X floatatom 795 156 5 0 0 0 - - - 0;
#X msg 796 209 waveform \$1;
#X obj 800 353 septavox~, f 18;
#X obj 903 64 vsl 15 128 0 1 0 0 empty empty empty 0 -9 0 10 #fcfcfc
#000000 #000000 0 1;
#X msg 892 210 knob1 \$1;
#X obj 971 65 vsl 15 128 0 1 0 0 empty empty empty 0 -9 0 10 #fcfcfc
#000000 #000000 0 1;
#X obj 1036 67 vsl 15 128 0 1 0 0 empty empty empty 0 -9 0 10 #fcfcfc
#000000 #000000 0 1;
#X msg 963 210 knob2 \$1;
#X msg 1036 212 knob3 \$1;
#X obj 794 183 % 7;
#X floatatom 724 154 5 0 0 0 - - - 0;
#X msg 729 209 mode \$1;
#X obj 718 573 *~ 0.1;
#N canvas 208 233 450 300 random-notes 0;
#X floatatom 162 209 5 0 0 0 - - - 0;
#X obj 133 64 random 8;
#X obj 130 99 sel 0 1 2 3 4 5 6 7;
#X obj 114 -9 inlet;
#X obj 160 259 outlet;
#X msg 80 137 48;
#X msg 126 138 44;
#X msg 172 138 56, f 4;
#X msg 220 136 52, f 4;
#X msg 264 135 53, f 4;
#X obj 127 34 metro 500;
#X connect 0 0 4 0;
#X connect 1 0 2 0;
#X connect 2 0 5 0;
#X connect 2 1 6 0;
#X connect 2 2 7 0;
#X connect 2 3 8 0;
#X connect 2 4 9 0;
#X connect 2 5 5 0;
#X connect 2 6 9 0;
#X connect 2 7 7 0;
#X connect 3 0 10 0;
#X connect 5 0 0 0;
#X connect 6 0 0 0;
#X connect 7 0 0 0;
#X connect 8 0 0 0;
#X connect 9 0 0 0;
#X connect 10 0 1 0;
#X restore 582 103 pd random-notes;
#X msg 611 206 notein \$1 \$2;
#X obj 581 79 tgl 15 0 empty empty empty 17 7 0 10 #fcfcfc #000000
#000000 0 1;
#X obj 610 183 pack;
#X obj 92 196 - 0;
#X obj 594 128 - 24;
#X obj 600 155 makenote 100 200;
#X obj 727 183 % 7;
#X obj 228 248 % 7;
#X connect 1 0 0 0;
#X connect 1 0 0 1;
#X connect 2 0 18 0;
#X connect 3 0 1 1;
#X connect 4 0 7 0;
#X connect 5 0 38 0;
#X connect 6 0 7 0;
#X connect 7 0 1 0;
#X connect 8 0 9 0;
#X connect 9 0 7 0;
#X connect 10 0 12 0;
#X connect 11 0 13 0;
#X connect 12 0 7 0;
#X connect 13 0 7 0;
#X connect 14 0 5 0;
#X connect 15 0 6 0;
#X connect 16 0 33 1;
#X connect 17 0 15 0;
#X connect 17 1 15 1;
#X connect 18 0 4 0;
#X connect 19 0 42 0;
#X connect 20 0 7 0;
#X connect 21 0 30 0;
#X connect 22 0 23 0;
#X connect 23 0 33 0;
#X connect 24 0 25 0;
#X connect 25 0 23 0;
#X connect 26 0 28 0;
#X connect 27 0 29 0;
#X connect 28 0 23 0;
#X connect 29 0 23 0;
#X connect 30 0 22 0;
#X connect 31 0 41 0;
#X connect 32 0 23 0;
#X connect 33 0 0 0;
#X connect 33 0 0 1;
#X connect 34 0 39 0;
#X connect 35 0 23 0;
#X connect 36 0 34 0;
#X connect 37 0 35 0;
#X connect 38 0 17 0;
#X connect 39 0 40 0;
#X connect 40 0 37 0;
#X connect 40 1 37 1;
#X connect 41 0 32 0;
#X connect 42 0 20 0;
