#N canvas -10 35 899 708 12;
#X obj 342 627 dac~;
#X floatatom 445 305 5 0 0 0 - - - 0;
#X msg 446 360 waveform \$1;
#N canvas 208 233 450 300 random-notes 0;
#X floatatom 162 209 5 0 0 0 - - - 0;
#X obj 133 64 random 8;
#X obj 130 99 sel 0 1 2 3 4 5 6 7;
#X obj 114 -9 inlet;
#X obj 160 259 outlet;
#X msg 80 137 48;
#X msg 126 138 44;
#X msg 172 138 56, f 4;
#X msg 220 136 52, f 4;
#X msg 264 135 53, f 4;
#X obj 127 34 metro 500;
#X connect 0 0 4 0;
#X connect 1 0 2 0;
#X connect 2 0 5 0;
#X connect 2 1 6 0;
#X connect 2 2 7 0;
#X connect 2 3 8 0;
#X connect 2 4 9 0;
#X connect 2 5 5 0;
#X connect 2 6 9 0;
#X connect 2 7 7 0;
#X connect 3 0 10 0;
#X connect 5 0 0 0;
#X connect 6 0 0 0;
#X connect 7 0 0 0;
#X connect 8 0 0 0;
#X connect 9 0 0 0;
#X connect 10 0 1 0;
#X restore 168 175 pd random-notes;
#X msg 100 312 notein \$1 \$2;
#X obj 597 221 vsl 15 128 0 1 0 0 empty empty empty 0 -9 0 10 #fcfcfc
#000000 #000000 0 1;
#X msg 598 363 knob1 \$1;
#X obj 668 220 vsl 15 128 0 1 0 0 empty empty empty 0 -9 0 10 #fcfcfc
#000000 #000000 0 1;
#X obj 743 217 vsl 15 128 0 1 0 0 empty empty empty 0 -9 0 10 #fcfcfc
#000000 #000000 0 1;
#X msg 669 363 knob2 \$1;
#X msg 741 363 knob3 \$1;
#X obj 166 141 tgl 15 0 empty empty empty 17 7 0 10 #fcfcfc #000000
#000000 0 1;
#X obj 161 241 pack;
#X floatatom 331 299 5 0 0 0 - - - 0;
#X msg 331 357 mode \$1;
#X obj 347 495 septavox~, f 18;
#X obj 163 207 makenote 100 3000;
#X msg 52 220 60 100;
#X msg 84 246 60 0;
#X obj 348 554 *~ 0.25;
#X obj 445 331 i;
#X obj 331 327 i;
#X obj 445 191 vradio 15 1 0 7 empty empty empty 0 -8 0 10 #fcfcfc
#000000 #000000 0;
#X obj 331 185 vradio 15 1 0 7 empty empty empty 0 -8 0 10 #fcfcfc
#000000 #000000 0;
#X obj 669 153 loadbang;
#X msg 669 177 0.5;
#X text 464 189 dirty sine;
#X text 466 205 sine;
#X text 465 219 elec organ;
#X text 465 233 square;
#X text 466 249 saw;
#X text 466 264 dirty square;
#X text 466 280 dirty square;
#X text 443 156 WAVEFORM;
#X text 643 120 KNOBS (range 0-1);
#X text 78 154 NOTES;
#X text 322 156 MODE;
#X text 348 183 virbrato;
#X text 349 199 slide;
#X text 348 213 2 oct arp;
#X text 348 227 swell;
#X text 349 243 oct cascade;
#X text 349 258 slicer;
#X text 349 274 pipe glide;
#X connect 1 0 20 0;
#X connect 2 0 15 0;
#X connect 3 0 16 0;
#X connect 4 0 15 0;
#X connect 5 0 6 0;
#X connect 6 0 15 0;
#X connect 7 0 9 0;
#X connect 8 0 10 0;
#X connect 9 0 15 0;
#X connect 10 0 15 0;
#X connect 11 0 3 0;
#X connect 12 0 4 0;
#X connect 13 0 21 0;
#X connect 14 0 15 0;
#X connect 15 0 19 0;
#X connect 16 0 12 0;
#X connect 16 1 12 1;
#X connect 17 0 4 0;
#X connect 18 0 4 0;
#X connect 19 0 0 0;
#X connect 19 0 0 1;
#X connect 20 0 2 0;
#X connect 21 0 14 0;
#X connect 22 0 1 0;
#X connect 23 0 13 0;
#X connect 24 0 25 0;
#X connect 25 0 5 0;
#X connect 25 0 7 0;
#X connect 25 0 8 0;
