#N canvas 553 25 817 721 12;
#X obj 165 687 dac~;
#X obj 162 632 *~ 0.1;
#X floatatom 93 181 5 0 0 0 - - - 0;
#X obj 206 469 vsl 15 128 0 1 0 0 empty empty empty 0 -9 0 10 #fcfcfc
#000000 #000000 0 1;
#X msg 83 226 waveform \$1;
#N canvas 208 233 450 300 random-notes 0;
#X floatatom 162 209 5 0 0 0 - - - 0;
#X obj 133 64 random 8;
#X obj 130 99 sel 0 1 2 3 4 5 6 7;
#X obj 114 -9 inlet;
#X obj 160 259 outlet;
#X msg 80 137 48;
#X msg 126 138 44;
#X msg 172 138 56, f 4;
#X msg 220 136 52, f 4;
#X msg 264 135 53, f 4;
#X obj 127 34 metro 1000;
#X connect 0 0 4 0;
#X connect 1 0 2 0;
#X connect 2 0 5 0;
#X connect 2 1 6 0;
#X connect 2 2 7 0;
#X connect 2 3 8 0;
#X connect 2 4 9 0;
#X connect 2 5 5 0;
#X connect 2 6 9 0;
#X connect 2 7 7 0;
#X connect 3 0 10 0;
#X connect 5 0 0 0;
#X connect 6 0 0 0;
#X connect 7 0 0 0;
#X connect 8 0 0 0;
#X connect 9 0 0 0;
#X connect 10 0 1 0;
#X restore 383 29 pd random-notes;
#X floatatom 219 96 5 0 0 0 - - - 0;
#X msg 233 225 notein \$1 \$2;
#X obj 177 168 pack 0 0;
#X floatatom 152 126 5 0 0 0 - - - 0;
#X obj 124 355 septavox~, f 18;
#X obj 419 155 vsl 15 128 0 1 0 0 empty empty empty 0 -9 0 10 #fcfcfc
#000000 #000000 0 1;
#X msg 408 301 knob1 \$1;
#X obj 478 158 vsl 15 128 0 1 0 0 empty empty empty 0 -9 0 10 #fcfcfc
#000000 #000000 0 1;
#X obj 548 148 vsl 15 128 0 1 0 0 empty empty empty 0 -9 0 10 #fcfcfc
#000000 #000000 0 1;
#X msg 479 301 knob2 \$1;
#X msg 552 303 knob3 \$1;
#X obj 382 5 tgl 15 0 empty empty empty 17 7 0 10 #fcfcfc #000000 #000000
0 1;
#X obj 411 109 pack;
#X msg 262 166 52 100;
#X msg 327 165 52 0;
#X obj 358 431 mtof;
#X obj 358 455 phasor~;
#X obj 358 479 *~ 2;
#X obj 358 503 -~ 1;
#X obj 298 452 vsl 15 128 0 1 0 0 empty empty empty 0 -9 0 10 #fcfcfc
#000000 #000000 0 1;
#X floatatom 361 401 5 0 0 0 - - - 0;
#X msg 272 107 30 100;
#X obj 254 615 *~ 0;
#X obj 395 54 - 6;
#X obj 401 81 makenote 100 800;
#X msg 341 107 30 0;
#X connect 1 0 0 0;
#X connect 1 0 0 1;
#X connect 2 0 4 0;
#X connect 3 0 1 1;
#X connect 4 0 10 0;
#X connect 5 0 29 0;
#X connect 6 0 8 1;
#X connect 7 0 10 0;
#X connect 8 0 7 0;
#X connect 9 0 8 0;
#X connect 10 0 1 0;
#X connect 11 0 12 0;
#X connect 12 0 10 0;
#X connect 13 0 15 0;
#X connect 14 0 16 0;
#X connect 15 0 10 0;
#X connect 16 0 10 0;
#X connect 17 0 5 0;
#X connect 18 0 7 0;
#X connect 18 0 26 0;
#X connect 19 0 7 0;
#X connect 20 0 7 0;
#X connect 21 0 22 0;
#X connect 22 0 23 0;
#X connect 23 0 24 0;
#X connect 24 0 28 0;
#X connect 25 0 28 1;
#X connect 26 0 21 0;
#X connect 27 0 7 0;
#X connect 28 0 0 0;
#X connect 28 0 0 1;
#X connect 29 0 30 0;
#X connect 30 0 18 0;
#X connect 30 1 18 1;
#X connect 31 0 7 0;
