#N canvas 570 32 670 539 12;
#X obj 156 456 dac~;
#X obj 101 349 *~ 0.1;
#X floatatom 113 73 5 0 0 0 - - - 0;
#X obj 235 38 *~ 0.05;
#X obj 530 385 samplerate~;
#X floatatom 543 422 13 0 0 0 - - - 0;
#X obj 536 349 bng 15 250 50 0 empty empty empty 17 7 0 10 #fcfcfc
#000000 #000000;
#X obj 235 14 osc~ 440;
#X obj 150 202 vsl 15 128 0 1 0 0 empty empty empty 0 -9 0 10 #fcfcfc
#000000 #000000 0 1;
#X obj 268 345 *~ 0.1;
#X msg 252 128 notein \$1;
#X obj 317 198 vsl 15 128 0 1 0 0 empty empty empty 0 -9 0 10 #fcfcfc
#000000 #000000 0 1;
#X floatatom 266 84 5 0 0 0 - - - 0;
#X msg 85 132 waveform \$1;
#X obj 87 159 septavox~d, f 18;
#X obj 254 167 septavox~, f 18;
#X connect 1 0 0 0;
#X connect 2 0 13 0;
#X connect 4 0 5 0;
#X connect 6 0 4 0;
#X connect 7 0 3 0;
#X connect 8 0 1 1;
#X connect 9 0 0 1;
#X connect 10 0 15 0;
#X connect 11 0 9 1;
#X connect 12 0 10 0;
#X connect 13 0 14 0;
#X connect 14 0 1 0;
#X connect 15 0 9 0;
