#N canvas 570 32 450 401 12;
#X obj 69 138 septavox~, f 18;
#X obj 67 226 dac~;
#X obj 69 181 *~ 0.1;
#X floatatom 113 73 5 0 0 0 - - - 0;
#X obj 298 123 *~ 0.05;
#X obj 188 222 samplerate~;
#X floatatom 201 259 13 0 0 0 - - - 0;
#X obj 194 186 bng 15 250 50 0 empty empty empty 17 7 0 10 #fcfcfc
#000000 #000000;
#X obj 298 99 osc~ 440;
#X connect 0 0 2 0;
#X connect 2 0 1 0;
#X connect 3 0 0 1;
#X connect 5 0 6 0;
#X connect 7 0 5 0;
#X connect 8 0 4 0;
