#N canvas 553 25 817 721 12;
#X obj 163 666 dac~;
#X obj 160 611 *~ 0.1;
#X floatatom 91 160 5 0 0 0 - - - 0;
#X obj 204 448 vsl 15 128 0 1 0 0 empty empty empty 0 -9 0 10 #fcfcfc
#000000 #000000 0 1;
#X msg 81 205 waveform \$1;
#N canvas 208 233 450 300 random-notes 0;
#X floatatom 162 209 5 0 0 0 - - - 0;
#X obj 133 64 random 8;
#X obj 130 99 sel 0 1 2 3 4 5 6 7;
#X obj 114 -9 inlet;
#X obj 160 259 outlet;
#X msg 80 137 48;
#X msg 126 138 44;
#X msg 172 138 56, f 4;
#X msg 220 136 52, f 4;
#X msg 264 135 53, f 4;
#X obj 127 34 metro 100;
#X connect 0 0 4 0;
#X connect 1 0 2 0;
#X connect 2 0 5 0;
#X connect 2 1 6 0;
#X connect 2 2 7 0;
#X connect 2 3 8 0;
#X connect 2 4 9 0;
#X connect 2 5 5 0;
#X connect 2 6 9 0;
#X connect 2 7 7 0;
#X connect 3 0 10 0;
#X connect 5 0 0 0;
#X connect 6 0 0 0;
#X connect 7 0 0 0;
#X connect 8 0 0 0;
#X connect 9 0 0 0;
#X connect 10 0 1 0;
#X restore 380 32 pd random-notes;
#X obj 646 179 *~ 0.05;
#X obj 621 135 osc~ 440;
#X floatatom 217 75 5 0 0 0 - - - 0;
#X msg 231 204 notein \$1 \$2;
#X obj 175 147 pack 0 0;
#X floatatom 150 105 5 0 0 0 - - - 0;
#X obj 122 334 septavox~, f 18;
#X obj 405 137 vsl 15 128 0 1 0 0 empty empty empty 0 -9 0 10 #fcfcfc
#000000 #000000 0 1;
#X msg 406 280 knob1 \$1;
#X obj 476 137 vsl 15 128 0 1 0 0 empty empty empty 0 -9 0 10 #fcfcfc
#000000 #000000 0 1;
#X obj 549 139 vsl 15 128 0 1 0 0 empty empty empty 0 -9 0 10 #fcfcfc
#000000 #000000 0 1;
#X msg 477 280 knob2 \$1;
#X msg 550 282 knob3 \$1;
#X msg 270 86 48 100;
#X msg 339 86 48 0;
#X obj 379 8 tgl 15 0 empty empty empty 17 7 0 10 #fcfcfc #000000 #000000
0 1;
#X obj 399 60 makenote 100 100;
#X obj 409 88 pack;
#X msg 260 145 52 100;
#X msg 325 144 52 0;
#X connect 1 0 0 0;
#X connect 1 0 0 1;
#X connect 2 0 4 0;
#X connect 3 0 1 1;
#X connect 4 0 12 0;
#X connect 5 0 22 0;
#X connect 7 0 6 0;
#X connect 8 0 10 1;
#X connect 9 0 12 0;
#X connect 10 0 9 0;
#X connect 11 0 10 0;
#X connect 12 0 1 0;
#X connect 13 0 14 0;
#X connect 14 0 12 0;
#X connect 15 0 17 0;
#X connect 16 0 18 0;
#X connect 17 0 12 0;
#X connect 18 0 12 0;
#X connect 19 0 9 0;
#X connect 20 0 9 0;
#X connect 21 0 5 0;
#X connect 22 0 23 0;
#X connect 22 1 23 1;
#X connect 23 0 9 0;
#X connect 24 0 9 0;
#X connect 25 0 9 0;
