#N canvas 553 25 817 721 12;
#X obj 167 680 dac~;
#X obj 114 627 *~ 0.1;
#X floatatom 87 337 5 0 0 0 - - - 0;
#X obj 257 271 *~ 0.05;
#X obj 257 247 osc~ 440;
#X obj 163 480 vsl 15 128 0 1 0 0 empty empty empty 0 -9 0 10 #fcfcfc
#000000 #000000 0 1;
#X obj 229 628 *~ 0.1;
#X obj 334 474 vsl 15 128 0 1 0 0 empty empty empty 0 -9 0 10 #fcfcfc
#000000 #000000 0 1;
#X floatatom 381 339 5 0 0 0 - - - 0;
#X msg 98 410 waveform \$1;
#X obj 321 442 septavox~, f 18;
#X msg 319 403 waveform \$1;
#X obj 100 437 septavox~, f 18;
#X floatatom 163 219 5 0 0 0 - - - 0;
#X msg 125 385 notein \$1;
#X obj 130 80 random 8;
#X msg 77 153 220;
#X msg 123 154 247;
#X msg 169 154 261, f 4;
#X msg 217 152 293, f 4;
#X msg 261 151 329, f 4;
#X obj 127 115 sel 0 1 2 3 4 5 6 7;
#X obj 119 22 tgl 15 0 empty empty empty 17 7 0 10 #fcfcfc #000000
#000000 0 1;
#X obj 225 206 hsl 128 15 0 12 0 0 empty empty empty -2 -8 0 10 #fcfcfc
#000000 #000000 0 1;
#X obj 158 247 * 0.25;
#X obj 166 345 line;
#X msg 157 309 \$1 100;
#X obj 124 50 metro 500;
#X floatatom 444 201 5 0 0 0 - - - 0;
#X obj 411 62 random 8;
#X msg 358 135 220;
#X msg 404 136 247;
#X msg 450 136 261, f 4;
#X msg 498 134 293, f 4;
#X obj 408 97 sel 0 1 2 3 4 5 6 7;
#X obj 400 4 tgl 15 0 empty empty empty 17 7 0 10 #fcfcfc #000000 #000000
0 1;
#X obj 506 188 hsl 128 15 0 12 0 0 empty empty empty -2 -8 0 10 #fcfcfc
#000000 #000000 0 1;
#X obj 439 229 * 0.25;
#X obj 447 327 line;
#X msg 418 403 notein \$1;
#X obj 405 32 metro 555;
#X msg 438 291 \$1 200;
#X obj 523 439 septavox~, f 18;
#X msg 521 400 waveform \$1;
#X msg 620 400 notein \$1;
#X obj 528 366 * 1.001;
#X msg -50 404 waveform \$1;
#X obj -48 431 septavox~, f 18;
#X msg -23 379 notein \$1;
#X obj 22 344 * 1.002;
#X obj 166 279 * 2;
#X obj 447 261 * 2;
#X connect 1 0 0 0;
#X connect 1 0 0 1;
#X connect 2 0 9 0;
#X connect 2 0 46 0;
#X connect 4 0 3 0;
#X connect 5 0 1 1;
#X connect 6 0 0 1;
#X connect 6 0 0 0;
#X connect 7 0 6 1;
#X connect 8 0 11 0;
#X connect 8 0 43 0;
#X connect 9 0 12 0;
#X connect 10 0 6 0;
#X connect 11 0 10 0;
#X connect 12 0 1 0;
#X connect 13 0 24 0;
#X connect 14 0 12 0;
#X connect 15 0 21 0;
#X connect 16 0 13 0;
#X connect 17 0 13 0;
#X connect 18 0 13 0;
#X connect 19 0 13 0;
#X connect 20 0 13 0;
#X connect 21 0 16 0;
#X connect 21 1 17 0;
#X connect 21 2 18 0;
#X connect 21 3 19 0;
#X connect 21 4 20 0;
#X connect 21 5 16 0;
#X connect 21 6 20 0;
#X connect 21 7 18 0;
#X connect 22 0 27 0;
#X connect 23 0 50 1;
#X connect 24 0 50 0;
#X connect 25 0 14 0;
#X connect 25 0 49 0;
#X connect 26 0 25 0;
#X connect 27 0 15 0;
#X connect 28 0 37 0;
#X connect 29 0 34 0;
#X connect 30 0 28 0;
#X connect 31 0 28 0;
#X connect 32 0 28 0;
#X connect 33 0 28 0;
#X connect 34 0 30 0;
#X connect 34 1 31 0;
#X connect 34 2 32 0;
#X connect 34 3 33 0;
#X connect 34 5 30 0;
#X connect 34 7 32 0;
#X connect 35 0 40 0;
#X connect 36 0 51 1;
#X connect 37 0 51 0;
#X connect 38 0 39 0;
#X connect 38 0 45 0;
#X connect 39 0 10 0;
#X connect 40 0 29 0;
#X connect 41 0 38 0;
#X connect 42 0 6 0;
#X connect 43 0 42 0;
#X connect 44 0 42 0;
#X connect 45 0 44 0;
#X connect 46 0 47 0;
#X connect 47 0 1 0;
#X connect 48 0 47 0;
#X connect 49 0 48 0;
#X connect 50 0 26 0;
#X connect 51 0 41 0;
