#N canvas 132 25 1253 772 12;
#X obj 16 34 inlet~ inL-\$1;
#X obj 126 34 inlet~ inR-\$1;
#X obj 243 31 r notesIn-\$1;
#X obj 56 854 outlet~ outL-\$1;
#X obj 252 852 outlet~ outR-\$1;
#X obj 503 49 r knob1-\$1;
#X obj 599 32 r knob2-\$1;
#X obj 702 40 r knob3-\$1;
#X msg 289 228 waveform \$1;
#X msg 273 148 notein \$1 \$2;
#X obj 140 561 septavox~, f 18;
#X obj 491 190 vsl 15 128 0 1 0 0 empty empty empty 0 -9 0 10 #fcfcfc
#000000 #000000 0 1;
#X msg 238 447 knob1 \$1;
#X obj 614 174 vsl 15 128 0 1 0 0 empty empty empty 0 -9 0 10 #fcfcfc
#000000 #000000 0 1;
#X obj 680 177 vsl 15 128 0 1 0 0 empty empty empty 0 -9 0 10 #fcfcfc
#000000 #000000 0 1;
#X msg 577 328 knob2 \$1;
#X msg 650 330 knob3 \$1;
#X msg 81 204 mode \$1;
#X obj 278 76 unpack;
#X obj 279 100 - 24;
#X obj 279 121 pack;
#X obj 314 560 septavox~, f 18;
#X msg 411 468 knob1 \$1;
#X obj 539 561 septavox~, f 18;
#X obj 716 564 septavox~, f 18;
#X msg 545 457 knob1 \$1;
#X msg 684 470 knob1 \$1;
#X obj 679 434 + 0.001;
#X obj 540 421 + 0.002;
#X obj 406 432 + 0.01;
#X obj 620 364 s septavox-messages;
#X obj 218 289 s septavox-messages;
#X obj 102 511 r septavox-messages;
#X obj 306 511 r septavox-messages;
#X obj 520 517 r septavox-messages;
#X obj 683 515 r septavox-messages;
#X text 748 434 detune them a little;
#X text 134 326 they all get same mode \, waveform \, and notes;
#X msg 615 80 \$1 25;
#X obj 613 106 line 0 4;
#X msg 679 78 \$1 25;
#X obj 677 104 line 0 4;
#X msg 81 106 0;
#X obj 307 685 *~ 0.5;
#X obj 78 67 r loadbang-\$1;
#X obj 383 39 r loadbang-\$1;
#X msg 423 100 1;
#X obj 503 104 i;
#X obj 503 76 * 7.5;
#X obj 98 142 t b f;
#X msg 79 174 6;
#X obj 604 55 * 0.25;
#X connect 2 0 18 0;
#X connect 5 0 48 0;
#X connect 6 0 51 0;
#X connect 7 0 40 0;
#X connect 8 0 31 0;
#X connect 9 0 31 0;
#X connect 10 0 43 0;
#X connect 11 0 12 0;
#X connect 11 0 29 0;
#X connect 11 0 28 0;
#X connect 11 0 27 0;
#X connect 12 0 10 0;
#X connect 13 0 15 0;
#X connect 14 0 16 0;
#X connect 15 0 30 0;
#X connect 16 0 30 0;
#X connect 17 0 31 0;
#X connect 18 0 19 0;
#X connect 18 1 20 1;
#X connect 19 0 20 0;
#X connect 20 0 9 0;
#X connect 21 0 43 0;
#X connect 22 0 21 0;
#X connect 23 0 43 0;
#X connect 24 0 43 0;
#X connect 25 0 23 0;
#X connect 26 0 24 0;
#X connect 27 0 26 0;
#X connect 28 0 25 0;
#X connect 29 0 22 0;
#X connect 32 0 10 0;
#X connect 33 0 21 0;
#X connect 34 0 23 0;
#X connect 35 0 24 0;
#X connect 38 0 39 0;
#X connect 39 0 13 0;
#X connect 40 0 41 0;
#X connect 41 0 14 0;
#X connect 42 0 49 0;
#X connect 43 0 4 0;
#X connect 43 0 3 0;
#X connect 44 0 42 0;
#X connect 45 0 46 0;
#X connect 46 0 11 0;
#X connect 47 0 8 0;
#X connect 48 0 47 0;
#X connect 49 0 50 0;
#X connect 49 1 8 0;
#X connect 50 0 17 0;
#X connect 51 0 38 0;
