#N canvas 345 69 1129 805 10;
#X floatatom 379 115 5 0 0 0 - - -;
#X msg 385 220 waveform \$1;
#X msg 530 209 notein \$1 \$2;
#X obj 298 541 septavox~, f 18;
#X obj 675 162 vsl 15 128 0 1 0 0 empty empty empty 0 -9 0 10 -262144
-1 -1 12700 1;
#X msg 396 427 knob1 \$1;
#X obj 744 154 vsl 15 128 0 1 0 0 empty empty empty 0 -9 0 10 -262144
-1 -1 0 1;
#X obj 804 155 vsl 15 128 0 1 0 0 empty empty empty 0 -9 0 10 -262144
-1 -1 0 1;
#X msg 735 308 knob2 \$1;
#X msg 808 310 knob3 \$1;
#X obj 382 139 % 7;
#X msg 283 217 mode \$1;
#X obj 566 703 throw~ outR;
#X obj 646 699 throw~ outL;
#X obj 671 70 r knob2;
#X obj 748 68 r knob3;
#X obj 806 67 r knob4;
#X obj 357 34 r knob1;
#X obj 356 55 * 6;
#X obj 367 90 i;
#X obj 533 110 r notes;
#X obj 213 24 r aux;
#X obj 213 45 sel 1;
#X obj 214 73 i 0;
#X obj 205 114 t f f;
#X obj 251 95 + 1;
#X obj 535 137 unpack;
#X obj 536 161 - 24;
#X obj 536 182 pack;
#X obj 472 540 septavox~, f 18;
#X floatatom 532 441 5 0 0 0 - - -;
#X msg 569 448 knob1 \$1;
#X obj 697 541 septavox~, f 18;
#X obj 874 544 septavox~, f 18;
#X floatatom 665 424 5 0 0 0 - - -;
#X msg 703 437 knob1 \$1;
#X floatatom 804 437 5 0 0 0 - - -;
#X msg 842 450 knob1 \$1;
#X obj 230 156 % 7;
#X msg 671 93 \$1 25;
#X obj 669 119 line 0 4;
#X obj 837 414 + 0.001;
#X obj 698 401 + 0.002;
#X obj 564 412 + 0.01;
#X obj 778 344 s septavox-messages;
#X obj 376 269 s septavox-messages;
#X obj 260 491 r septavox-messages;
#X obj 464 491 r septavox-messages;
#X obj 678 497 r septavox-messages;
#X obj 841 495 r septavox-messages;
#X text 906 414 detune them a little;
#X text 293 296 they all get same mode \, waveform \, and notes;
#X msg 746 92 \$1 25;
#X obj 744 118 line 0 4;
#X msg 810 90 \$1 25;
#X obj 808 116 line 0 4;
#X obj 39 129 loadbang;
#X obj 32 23 v waveform;
#X obj 32 49 v mode;
#N canvas 327 69 1323 679 display 0;
#X obj 437 294 s screenLine2;
#X obj 34 47 + 1;
#X obj 34 68 s led;
#X obj 34 22 r mode;
#X obj 437 20 r waveform;
#X obj 688 55 r knob2;
#X msg 690 161 2: Tune \$1%;
#X obj 688 134 i;
#X obj 687 184 s screenLine3;
#X obj 656 409 * 100;
#X obj 656 430 i;
#X obj 688 92 + 1;
#X obj 688 113 * 100;
#X msg 448 260 1: Wave \$1;
#X obj 431 52 sel 0 1 2 3 4 5 6;
#X obj 377 113 symbol DirtySine;
#X obj 403 140 symbol Sine;
#X obj 490 105 symbol Square;
#X obj 495 125 symbol Sawtooth;
#X obj 528 143 symbol DirtySquare;
#X obj 541 164 symbol Computer;
#X obj 410 161 symbol ElecOrgan;
#X obj 143 62 sel 0 1 2 3 4 5 6;
#X obj 149 30 r mode;
#X msg 160 270 Mode \$1;
#X obj 160 303 s screenLine1;
#X obj 89 123 symbol Vibrato;
#X obj 115 150 symbol Slide;
#X obj 122 171 symbol Arp;
#X obj 202 115 symbol Swell;
#X obj 207 135 symbol OctCascade;
#X obj 240 153 symbol Slicer;
#X obj 253 174 symbol PipeGlide;
#X obj 731 407 sel 0 1 2 3 4 5 6;
#X obj 729 365 v mode;
#X obj 634 555 pack f s;
#X obj 698 333 t f b;
#X obj 677 468 symbol Rate;
#X obj 710 516 symbol Rate;
#X obj 804 466 symbol Attack;
#X obj 823 492 symbol Rate;
#X obj 856 510 symbol Rate;
#X obj 869 531 symbol GlideTime;
#X obj 699 303 f;
#X obj 766 251 r mode;
#X obj 766 272 t b f;
#X obj 704 495 symbol GlideTime;
#X obj 693 247 r knob4;
#X msg 636 586 4: \$2 \$1%;
#X obj 637 615 s screenLine5;
#X obj 1003 405 * 100;
#X obj 1003 426 i;
#X obj 1078 403 sel 0 1 2 3 4 5 6;
#X obj 1076 361 v mode;
#X obj 981 551 pack f s;
#X obj 1045 329 t f b;
#X obj 1046 299 f;
#X obj 1113 247 r mode;
#X obj 1113 268 t b f;
#X obj 1040 243 r knob3;
#X msg 983 582 3: \$2 \$1%;
#X obj 984 611 s screenLine4;
#X obj 1024 464 symbol Depth;
#X obj 1051 491 symbol Amount;
#X obj 1057 512 symbol Envelope;
#X obj 1151 462 symbol Decay;
#X obj 1170 488 symbol Envelope;
#X obj 1203 506 symbol Pattern;
#X obj 1216 527 symbol Modulation;
#X text 852 218 update knob label depending on mode;
#X connect 1 0 2 0;
#X connect 3 0 1 0;
#X connect 4 0 14 0;
#X connect 5 0 11 0;
#X connect 6 0 8 0;
#X connect 7 0 6 0;
#X connect 9 0 10 0;
#X connect 10 0 35 0;
#X connect 11 0 12 0;
#X connect 12 0 7 0;
#X connect 13 0 0 0;
#X connect 14 0 15 0;
#X connect 14 1 16 0;
#X connect 14 2 21 0;
#X connect 14 3 17 0;
#X connect 14 4 18 0;
#X connect 14 5 19 0;
#X connect 14 6 20 0;
#X connect 15 0 13 0;
#X connect 16 0 13 0;
#X connect 17 0 13 0;
#X connect 18 0 13 0;
#X connect 19 0 13 0;
#X connect 20 0 13 0;
#X connect 21 0 13 0;
#X connect 22 0 26 0;
#X connect 22 1 27 0;
#X connect 22 2 28 0;
#X connect 22 3 29 0;
#X connect 22 4 30 0;
#X connect 22 5 31 0;
#X connect 22 6 32 0;
#X connect 23 0 22 0;
#X connect 24 0 25 0;
#X connect 26 0 24 0;
#X connect 27 0 24 0;
#X connect 28 0 24 0;
#X connect 29 0 24 0;
#X connect 30 0 24 0;
#X connect 31 0 24 0;
#X connect 32 0 24 0;
#X connect 33 0 37 0;
#X connect 33 1 46 0;
#X connect 33 2 38 0;
#X connect 33 3 39 0;
#X connect 33 4 40 0;
#X connect 33 5 41 0;
#X connect 33 6 42 0;
#X connect 34 0 33 0;
#X connect 35 0 48 0;
#X connect 36 0 9 0;
#X connect 36 1 34 0;
#X connect 37 0 35 1;
#X connect 38 0 35 1;
#X connect 39 0 35 1;
#X connect 40 0 35 1;
#X connect 41 0 35 1;
#X connect 42 0 35 1;
#X connect 43 0 36 0;
#X connect 44 0 45 0;
#X connect 45 0 43 0;
#X connect 45 1 34 0;
#X connect 46 0 35 1;
#X connect 47 0 43 0;
#X connect 48 0 49 0;
#X connect 50 0 51 0;
#X connect 51 0 54 0;
#X connect 52 0 62 0;
#X connect 52 1 63 0;
#X connect 52 2 64 0;
#X connect 52 3 65 0;
#X connect 52 4 66 0;
#X connect 52 5 67 0;
#X connect 52 6 68 0;
#X connect 53 0 52 0;
#X connect 54 0 60 0;
#X connect 55 0 50 0;
#X connect 55 1 53 0;
#X connect 56 0 55 0;
#X connect 57 0 58 0;
#X connect 58 0 56 0;
#X connect 58 1 53 0;
#X connect 59 0 56 0;
#X connect 60 0 61 0;
#X connect 62 0 54 1;
#X connect 63 0 54 1;
#X connect 64 0 54 1;
#X connect 65 0 54 1;
#X connect 66 0 54 1;
#X connect 67 0 54 1;
#X connect 68 0 54 1;
#X restore 36 88 pd display;
#X obj 54 235 s mode;
#X obj 30 265 s waveform;
#X msg 41 178 0;
#X obj 38 152 delay 200;
#X obj 40 203 t f f;
#X obj 237 180 t f f;
#X obj 214 215 s mode;
#X obj 386 164 t f f;
#X obj 344 192 s waveform;
#X obj 650 661 *~ 0.5;
#X connect 0 0 10 0;
#X connect 1 0 45 0;
#X connect 2 0 45 0;
#X connect 3 0 69 0;
#X connect 4 0 5 0;
#X connect 4 0 43 0;
#X connect 4 0 42 0;
#X connect 4 0 41 0;
#X connect 5 0 3 0;
#X connect 6 0 8 0;
#X connect 7 0 9 0;
#X connect 8 0 44 0;
#X connect 9 0 44 0;
#X connect 10 0 67 0;
#X connect 11 0 45 0;
#X connect 14 0 39 0;
#X connect 15 0 52 0;
#X connect 16 0 54 0;
#X connect 17 0 18 0;
#X connect 18 0 19 0;
#X connect 19 0 0 0;
#X connect 20 0 26 0;
#X connect 21 0 22 0;
#X connect 22 0 23 0;
#X connect 23 0 24 0;
#X connect 24 0 38 0;
#X connect 24 1 25 0;
#X connect 25 0 23 1;
#X connect 26 0 27 0;
#X connect 26 1 28 1;
#X connect 27 0 28 0;
#X connect 28 0 2 0;
#X connect 29 0 69 0;
#X connect 31 0 29 0;
#X connect 32 0 69 0;
#X connect 33 0 69 0;
#X connect 35 0 32 0;
#X connect 37 0 33 0;
#X connect 38 0 65 0;
#X connect 39 0 40 0;
#X connect 40 0 4 0;
#X connect 41 0 36 0;
#X connect 41 0 37 0;
#X connect 42 0 34 0;
#X connect 42 0 35 0;
#X connect 43 0 30 0;
#X connect 43 0 31 0;
#X connect 46 0 3 0;
#X connect 47 0 29 0;
#X connect 48 0 32 0;
#X connect 49 0 33 0;
#X connect 52 0 53 0;
#X connect 53 0 6 0;
#X connect 54 0 55 0;
#X connect 55 0 7 0;
#X connect 56 0 63 0;
#X connect 62 0 64 0;
#X connect 63 0 62 0;
#X connect 64 0 61 0;
#X connect 64 1 60 0;
#X connect 65 0 66 0;
#X connect 65 1 11 0;
#X connect 67 0 68 0;
#X connect 67 1 1 0;
#X connect 69 0 12 0;
#X connect 69 0 13 0;
